HIERARCHY
ROOT Hips
{
	OFFSET 0.000000 0.000000 0.000000
	CHANNELS 6 Xposition Yposition Zposition Zrotation Yrotation Xrotation 
	JOINT LHipJoint
	{
		OFFSET 0.000000 0.000000 0.000000
		CHANNELS 3 Zrotation Yrotation Xrotation
		JOINT LeftUpLeg
		{
			OFFSET 1.363060 -1.794630 0.839290
			CHANNELS 3 Zrotation Yrotation Xrotation
			JOINT LeftLeg
			{
				OFFSET 2.448110 -6.726130 0.000000
				CHANNELS 3 Zrotation Yrotation Xrotation
				JOINT LeftFoot
				{
					OFFSET 2.562200 -7.039590 0.000000
					CHANNELS 3 Zrotation Yrotation Xrotation
					JOINT LeftToeBase
					{
						OFFSET 0.157640 -0.433110 2.322550
						CHANNELS 3 Zrotation Yrotation Xrotation
						End Site
						{
							OFFSET 0.000000 0.000000 0.000000
						}
					}
				}
			}
		}
	}
	JOINT RHipJoint
	{
		OFFSET 0.000000 0.000000 0.000000
		CHANNELS 3 Zrotation Yrotation Xrotation
		JOINT RightUpLeg
		{
			OFFSET -1.305520 -1.794630 0.839290
			CHANNELS 3 Zrotation Yrotation Xrotation
			JOINT RightLeg
			{
				OFFSET -2.542530 -6.985550 0.000000
				CHANNELS 3 Zrotation Yrotation Xrotation
				JOINT RightFoot
				{
					OFFSET -2.568260 -7.056230 0.000000
					CHANNELS 3 Zrotation Yrotation Xrotation
					JOINT RightToeBase
					{
						OFFSET -0.164730 -0.452590 2.363150
						CHANNELS 3 Zrotation Yrotation Xrotation
						End Site
						{
							OFFSET 0.000000 0.000000 0.000000
						}
					}
				}
			}
		}
	}
}
MOTION
Frames: 33
Frame Time: 0.008333
1.478166 17.307248 1.538454 -179.094797 -58.936734 -168.446803 -11.580764 2.734925 -1.815232 -7.755280 28.036655 -15.031571 -2.707822 -0.627095 5.106529 2.457019 17.119314 -3.526947 1.324300 -0.000001 -31.628500 9.458308 -1.073734 4.366244 0.425987 5.305596 -22.205737 2.648046 0.670403 4.191975 1.212554 6.384636 9.731677 1.221400 0.000001 -70.591900
1.476365 17.306359 1.561960 -179.287057 -59.385540 -168.116406 -11.534115 2.710347 -1.769641 -8.014463 27.486057 -15.252149 -2.699955 -0.628815 5.259559 2.472561 17.103963 -3.706298 1.278901 -0.000000 -31.340400 9.498210 -1.028198 4.266369 0.266560 4.972239 -22.392849 2.611717 0.652031 4.368696 1.180388 6.186444 9.620392 1.159200 0.000000 -70.631300
1.474256 17.305504 1.585462 -179.503534 -59.943177 -167.737363 -11.483933 2.681885 -1.710091 -8.283218 26.846610 -15.498430 -2.690239 -0.632076 5.408587 2.485900 17.065124 -3.880606 1.234500 -0.000000 -31.054501 9.538992 -0.979369 4.161829 0.094271 4.632019 -22.593488 2.566895 0.632442 4.581598 1.133585 5.878918 9.461548 1.061800 -0.000000 -70.572100
1.471671 17.304719 1.608824 -179.751187 -60.620939 -167.299770 -11.430608 2.649959 -1.634664 -8.561173 26.113875 -15.779436 -2.679428 -0.636064 5.563163 2.495844 16.994953 -4.048317 1.191000 -0.000000 -30.777700 9.580150 -0.927438 4.053850 -0.094165 4.285909 -22.801804 2.513183 0.613024 4.820196 1.070372 5.451434 9.258164 0.927100 0.000000 -70.419900
1.468450 17.304073 1.631872 179.956863 -61.430501 -166.791576 -11.374871 2.615418 -1.541799 -8.846593 25.285962 -16.099204 -2.668356 -0.640074 5.729617 2.500577 16.883448 -4.205364 1.149000 -0.000000 -30.519700 9.621485 -0.872503 3.942534 -0.301854 3.929312 -23.009391 2.450288 0.595009 5.073832 0.989289 4.899199 9.014319 0.755500 -0.000000 -70.188900
1.464046 17.303517 1.654295 179.607671 -62.389055 -166.193322 -11.318192 2.579372 -1.424393 -9.139757 24.351304 -16.474853 -2.657658 -0.643806 5.919077 2.498866 16.721461 -4.351973 1.107900 0.000000 -30.291201 9.661522 -0.815939 3.830011 -0.527864 3.550783 -23.214889 2.379141 0.580701 5.329130 0.888973 4.217952 8.735413 0.547300 0.000000 -69.898700
1.458544 17.303073 1.675977 179.173274 -63.506361 -165.491547 -11.261619 2.543032 -1.285030 -9.433253 23.316596 -16.884973 -2.647670 -0.647108 6.121925 2.487629 16.497089 -4.476008 1.070300 -0.000001 -30.106800 9.701731 -0.756748 3.710139 -0.773783 3.129925 -23.395655 2.299676 0.569998 5.578186 0.769130 3.420054 8.425016 0.308400 -0.000000 -69.575100
1.450973 17.302628 1.696721 178.633829 -64.803073 -164.657538 -11.207598 2.507637 -1.113498 -9.724663 22.168071 -17.349448 -2.638826 -0.650189 6.348218 2.465251 16.198658 -4.578984 1.034900 -0.000000 -29.978900 9.739853 -0.697222 3.584438 -1.030607 2.641970 -23.552603 2.214685 0.565627 5.806287 0.629204 2.508270 8.090251 0.041099 -0.000000 -69.242400
1.441251 17.302134 1.716422 177.941978 -66.288024 -163.658806 -11.157003 2.474169 -0.911717 -10.005638 20.907109 -17.835605 -2.630275 -0.654027 6.576595 2.429495 15.821645 -4.646174 1.005300 0.000000 -29.921300 9.777973 -0.636117 3.443483 -1.296351 2.053401 -23.659873 2.125346 0.566850 6.007073 0.470299 1.505515 7.733462 -0.246000 -0.000001 -68.925500
1.429228 17.301476 1.735044 177.032035 -67.972163 -162.440375 -11.110680 2.442804 -0.677513 -10.270121 19.524849 -18.322232 -2.620693 -0.659913 6.789451 2.379298 15.366248 -4.666650 0.983900 -0.000000 -29.945800 9.816909 -0.572838 3.279657 -1.565653 1.329080 -23.699268 2.033946 0.573490 6.171496 0.293775 0.430923 7.358820 -0.545400 -0.000000 -68.641700
1.414197 17.300600 1.752666 175.820813 -69.867230 -160.915446 -11.070845 2.413231 -0.404758 -10.511444 18.013216 -18.811839 -2.609756 -0.668690 6.984421 2.313313 14.826642 -4.636980 0.970200 0.000000 -30.060799 9.854574 -0.509258 3.090364 -1.825611 0.438826 -23.664307 1.944533 0.586763 6.285796 0.100860 -0.704165 6.973836 -0.853000 -0.000000 -68.400300
1.395943 17.299423 1.769496 174.157336 -71.975681 -158.937956 -11.039739 2.383806 -0.092284 -10.723294 16.369512 -19.290298 -2.596686 -0.681569 7.148474 2.230484 14.202414 -4.548951 0.964499 0.000000 -30.273500 9.888896 -0.446735 2.870710 -2.068980 -0.642170 -23.541614 1.860259 0.606339 6.339098 -0.106850 -1.886186 6.584782 -1.163800 -0.000000 -68.198500
1.375169 17.298010 1.785644 171.731973 -74.285752 -156.217352 -11.019693 2.349630 0.253137 -10.904179 14.587647 -19.707568 -2.578903 -0.700914 7.246325 2.131560 13.512661 -4.380922 0.971300 0.000000 -30.589000 9.918222 -0.385368 2.609802 -2.305242 -1.935366 -23.302575 1.781884 0.628675 6.324144 -0.327146 -3.095701 6.196352 -1.470800 0.000000 -68.028300
1.351768 17.296440 1.801361 167.972473 -76.780500 -152.179193 -11.019595 2.301260 0.630270 -11.054381 12.669199 -20.060242 -2.556444 -0.728696 7.275988 2.015189 12.756957 -4.125648 0.988700 0.000000 -31.009599 9.931832 -0.334050 2.309661 -2.537437 -3.442538 -22.941423 1.711249 0.651776 6.226934 -0.560405 -4.335389 5.819795 -1.774399 0.000000 -67.870000
1.326555 17.294826 1.816851 161.527030 -79.421495 -145.481721 -11.051799 2.215437 1.029931 -11.181867 10.613213 -20.322508 -2.528977 -0.770629 7.230938 1.879117 11.940511 -3.766896 1.016500 0.000000 -31.534500 9.915271 -0.311875 1.974562 -2.784967 -5.158894 -22.446559 1.646468 0.667671 6.035750 -0.810077 -5.613550 5.463797 -2.075700 0.000000 -67.701500
1.300120 17.293321 1.832266 148.825148 -82.135026 -132.556630 -11.108223 2.039431 1.433790 -11.291500 8.416320 -20.471445 -2.501240 -0.843015 7.131723 1.714715 11.044837 -3.288641 1.051800 -0.000000 -32.161300 9.871775 -0.367634 1.628811 -3.064064 -7.077173 -21.811238 1.578793 0.655986 5.731323 -1.089335 -6.964754 5.135394 -2.379899 -0.000000 -67.497800
1.273299 17.292126 1.847598 120.365430 -84.584961 -103.907656 -10.972352 1.747048 1.802508 -11.316770 6.080973 -20.478735 -2.499135 -0.968914 7.017340 1.512483 10.038479 -2.680545 1.091401 0.000000 -32.883600 10.003868 -0.530265 1.323465 -3.303290 -9.176362 -21.011614 1.480740 0.583569 5.293313 -1.416412 -8.440135 4.842152 -2.694200 0.000000 -67.236800
1.247084 17.291330 1.862628 75.198540 -85.271614 -58.588037 -10.327007 1.698553 2.164212 -11.124887 3.774718 -20.459056 -2.549576 -1.048523 6.797471 1.326061 9.038503 -2.009519 1.130400 -0.000000 -33.692000 10.623901 -0.475362 0.986691 -3.335481 -11.225771 -20.018291 1.356961 0.549138 4.788456 -1.720180 -9.934309 4.644986 -3.028100 -0.000000 -66.902500
1.215421 17.290670 1.885797 40.066281 -83.299578 -23.173806 -9.763913 1.985103 2.900082 -10.559698 0.560465 -20.996967 -2.522080 -0.979094 6.811616 1.214776 8.194364 -1.441731 1.150700 -0.000000 -34.516500 11.131467 -0.120087 0.338781 -2.999008 -14.135007 -18.891800 1.382667 0.691829 4.063265 -1.904795 -11.236418 4.675763 -3.380500 -0.000000 -66.526900
1.192992 17.290706 1.898943 30.621189 -80.411868 -13.631837 -9.654528 2.074300 3.326854 -10.559743 -1.671975 -20.909978 -2.541305 -0.947892 6.342007 1.051037 7.265531 -0.571645 1.170200 0.000000 -35.466900 11.238656 0.085054 -0.163241 -3.422426 -16.026147 -17.633972 1.296059 0.763489 3.503706 -2.154289 -12.726750 4.670775 -3.775299 0.000000 -66.049001
1.172576 17.290947 1.909964 25.846812 -77.122837 -8.788099 -9.592851 2.080336 3.722164 -10.619553 -3.919145 -20.731127 -2.571196 -0.930266 5.865059 0.871662 6.287816 0.404903 1.168700 0.000000 -36.436100 11.297925 0.221301 -0.643334 -3.980351 -17.864284 -16.248778 1.188149 0.805363 2.903110 -2.426400 -14.308073 4.731053 -4.208801 0.000000 -65.512500
1.154289 17.291147 1.918511 23.125541 -73.632851 -6.030568 -9.537998 2.040040 4.084410 -10.730841 -6.136488 -20.471855 -2.617189 -0.914580 5.396044 0.683548 5.263949 1.462787 1.137500 -0.000000 -37.422800 11.350360 0.319765 -1.102482 -4.651985 -19.600834 -14.730840 1.057550 0.825037 2.288087 -2.711496 -15.957634 4.858364 -4.684700 0.000001 -64.921100
1.137615 17.290865 1.923895 21.460191 -70.031446 -4.365616 -9.476428 1.972472 4.422101 -10.904116 -8.305276 -20.145301 -2.681713 -0.896261 4.951937 0.492185 4.199377 2.573999 1.069400 -0.000001 -38.374200 11.409703 0.395019 -1.540948 -5.430838 -21.249714 -13.109877 0.910585 0.824657 1.705098 -2.996406 -17.615840 5.042530 -5.190500 -0.000000 -64.321900
1.122086 17.289631 1.925973 20.370946 -66.380118 -3.325515 -9.401152 1.889392 4.739720 -11.140869 -10.396960 -19.754595 -2.764900 -0.872792 4.551390 0.300794 3.089103 3.707848 0.957201 -0.000000 -39.268500 11.483096 0.452167 -1.958851 -6.303074 -22.824738 -11.400849 0.754467 0.806260 1.183344 -3.270277 -19.232545 5.274736 -5.714100 0.000000 -63.736200
1.107248 17.287031 1.924728 19.609323 -62.728239 -2.674810 -9.305908 1.799973 5.041229 -11.440952 -12.385899 -19.301368 -2.865927 -0.843721 4.207998 0.112257 1.930223 4.831302 0.795700 0.000000 -40.081899 11.576014 0.494315 -2.358396 -7.253658 -24.357262 -9.625893 0.598618 0.772055 0.747078 -3.521312 -20.749417 5.546019 -6.236999 0.000000 -63.197800
1.092712 17.282663 1.920489 19.035503 -59.124740 -2.282599 -9.186741 1.711676 5.328386 -11.800589 -14.245074 -18.787780 -2.982852 -0.809899 3.929174 -0.070861 0.723110 5.911300 0.583101 -0.000000 -40.794800 11.691193 0.523386 -2.742105 -8.266472 -25.879512 -7.811096 0.452658 0.725409 0.410141 -3.739122 -22.113368 5.848562 -6.739500 0.000001 -62.738700
1.078240 17.276303 1.913650 18.572541 -55.619980 -2.076579 -9.042921 1.630005 5.600345 -12.214259 -15.947743 -18.214052 -3.112822 -0.773245 3.712736 -0.245980 -0.523623 6.918225 0.322000 0.000000 -41.394500 11.828076 0.541127 -3.112351 -9.328899 -27.418570 -5.983175 0.324851 0.670392 0.175656 -3.915752 -23.281262 6.175359 -7.202100 0.000000 -62.382100
1.063950 17.267846 1.904832 18.176032 -52.267596 -2.013285 -8.878054 1.558411 5.854403 -12.673944 -17.466341 -17.583844 -3.252102 -0.736197 3.550003 -0.410764 -1.794362 7.827334 0.020200 0.000000 -41.873900 11.981885 0.548889 -3.468899 -10.428419 -28.986884 -4.171844 0.220984 0.611606 0.036679 -4.047334 -24.228589 6.519677 -7.609800 -0.000000 -62.144400
1.050138 17.257416 1.894635 17.826967 -49.123034 -2.067426 -8.699537 1.498387 6.086847 -13.170257 -18.777610 -16.901431 -3.396427 -0.701586 3.424725 -0.562978 -3.063942 8.622005 -0.310100 -0.000000 -42.232400 12.144523 0.548219 -3.809059 -11.554522 -30.581113 -2.406952 0.143749 0.553288 -0.020626 -4.134149 -24.949634 6.873576 -7.952900 -0.000000 -62.032699
1.037217 17.245304 1.883621 17.521531 -46.238989 -2.222467 -8.517726 1.449453 6.293416 -13.692896 -19.863652 -16.172753 -3.541373 -0.672340 3.315661 -0.700589 -4.298869 9.294396 -0.652300 0.000000 -42.474100 12.305563 0.540857 -4.127658 -12.695701 -32.180963 -0.718380 0.092679 0.498696 -0.013748 -4.180561 -25.457479 7.226607 -8.227400 0.000000 -62.043300
1.025724 17.232014 1.872368 17.261215 -43.664921 -2.462842 -8.344509 1.409785 6.470214 -14.228872 -20.713262 -15.407363 -3.682504 -0.651227 3.197812 -0.822055 -5.461839 9.847123 -0.988601 0.000000 -42.622500 12.453760 0.528326 -4.417028 -13.833229 -33.747614 0.863105 0.064635 0.450107 0.039046 -4.194531 -25.781192 7.559221 -8.432700 -0.000000 -62.129000
1.016588 17.217845 1.860892 17.055815 -41.426741 -2.783443 -8.191693 1.374057 6.614331 -14.769210 -21.336384 -14.610939 -3.816292 -0.640091 3.055079 -0.926158 -6.512433 10.282571 -1.300000 0.000001 -42.638700 12.578180 0.513305 -4.674163 -14.958456 -35.252700 2.316183 0.054868 0.406345 0.126604 -4.184771 -25.958403 7.872630 -8.580400 0.000000 -62.364600
1.009785 17.203621 1.849688 16.912790 -39.554507 -3.162859 -8.069259 1.339982 6.724374 -15.297609 -21.738449 -13.801665 -3.939406 -0.640745 2.864848 -1.012664 -7.417978 10.620369 -1.572199 -0.000000 -42.582500 12.671331 0.495985 -4.889098 -16.032499 -36.632128 3.608574 0.056879 0.368057 0.233422 -4.163070 -26.035801 8.131946 -8.673100 -0.000000 -62.612500
